<?xml version="1.0" encoding="UTF-8"?>
<svg id="Layer_2" data-name="Layer 2" xmlns="http://www.w3.org/2000/svg" viewBox="0 0 383.22 383.13">
  <defs>
    <style>
      .cls-1 {
        fill: #f5f4ed;
        stroke-width: 0px;
      }
    </style>
  </defs>
  <g id="Layer_1-2" data-name="Layer 1">
    <g>
      <path class="cls-1" d="m168.47,0c2.83,1.06,5.78,1.89,8.48,3.22,5.89,2.89,10.22,7.44,13.18,13.28,6.24,12.29,12.59,24.53,18.66,36.91,10.97,22.4.81,47.89-22.55,56.65-13,4.87-26.1,9.46-39.12,14.28-12.18,4.51-23.88,3.59-35.19-2.75-.52-.29-1.06-.54-1.94-.98,2.62,15.81,8.54,29.83,17.75,42.49,4.54,6.25,10.17,11.65,14.27,18.24,1.49,2.4,2.35.6,3.3-.31,8.56-8.11,18.05-14.92,28.7-19.95,34.78-16.45,69.58-16.26,104.27.34,4.87,2.33,6.53,6.5,4.47,10.65-1.93,3.88-6.36,5.23-10.9,2.97-17.71-8.82-36.42-12.4-56.07-10.41-24.96,2.53-46.17,13-63.7,30.96-1.03,1.05-1.24,1.99-.67,3.28,7.24,16.33,8.65,33.58,8.08,51.15-.08,2.62.02,5.24-.02,7.86-.07,4.86-3.35,8.44-7.63,8.39-4.22-.05-7.27-3.41-7.39-8.18-.22-8.97.29-17.94-.49-26.91-1.59-18.26-7.98-34.63-19.91-48.49-13.39-15.55-23.23-32.79-27.69-52.92-1.73-7.8-2.9-15.67-2.66-23.68.08-2.51-.69-4.42-2.16-6.45-3.3-4.56-6.55-8.57-12.55-10.19-5.08-1.38-8.86-5.4-11.76-9.93-2.44-3.81-1.74-8.23,1.61-10.61,3.53-2.5,7.54-1.83,10.57,1.78,5.89,7.01,10.66,8.07,19,4.21.9-.42,1.78-.9,2.71-1.24,4.08-1.49,8.02,0,9.8,3.68,1.77,3.66.41,7.69-3.29,9.94-1.42.86-3.99.98-4.1,2.52-.09,1.35,1.69,2.87,2.71,4.26,2.07,2.81,4.09,5.66,6.31,8.34,7.16,8.64,17.72,11.84,28.23,8.18,13.7-4.78,27.35-9.7,40.89-14.91,13.93-5.35,20.34-21.01,13.96-34.51-6.1-12.9-12.68-25.57-19.27-38.23-3.5-6.72-10.07-9.15-17.82-7.05-25.97,7.06-51.93,14.14-77.88,21.24-8,2.19-16.25,3.64-23.7,7.54-15.53,8.15-23.66,21.45-27.74,38.18-11.05,45.31-15.07,91.28-14.12,137.79,0,.22.14.43.33,1,3.64-3.29,7.11-6.59,11.19-9.1,4.49-2.76,9.01-2.12,11.45,1.73,2.32,3.66,1.13,8.05-3.12,10.89-13.53,9.03-19.81,21.81-19.88,37.9-.05,10.84-.19,21.66,3.71,32.06,8.75,23.33,30.4,38.25,56.02,38.38,19.45.1,38.9.02,58.36.21,9.66.1,18.31,3.53,25.74,9.58,14.14,11.52,29.92,19.29,47.89,22.86,51.72,10.28,103.35-21.3,117.26-72.21,6.9-25.23,4.39-49.73-6.97-73.32-2.4-4.99-1.7-8.9,1.94-11.21,4.13-2.63,8.66-1.18,11.14,3.62,6.22,12.04,10.1,24.85,11.75,38.25,3.27,26.53-1.27,51.68-15.24,74.59-20.02,32.84-49.21,52.17-87.6,56.48-32.29,3.63-61.36-5.04-86.82-25.25-7.36-5.84-15.31-8.7-24.75-8.54-17.58.3-35.16.11-52.75.08-36.69-.05-66.91-25.11-73.63-61.14-.64-3.41-1.03-6.89-1.02-10.4.06-30.3-.35-60.61.16-90.91.64-38.21,5.97-75.9,15.95-112.79,6.76-24.95,23.41-40.79,48.28-47.66,30.14-8.33,60.36-16.34,90.52-24.58,1.23-.34,2.8.21,3.73-1.15C161.98,0,165.22,0,168.47,0Z"/>
      <path class="cls-1" d="m375.42,44.63c-8.34-.05-16.67.01-25.01-.03-4.15-.02-4.36-.31-2.86-4.29,3.59-9.54,7.32-19.04,10.94-28.57,2.25-5.92.46-9.73-5.2-11.74h-56.12c-2.23,1.58-4.13,3.34-5.06,6.1-8.26,24.41-16.61,48.79-24.89,73.19-2.37,7,.69,11.3,8,11.34,9.35.04,18.7.08,28.05-.04,2.41-.03,3.29.38,2.71,3.06-3.36,15.52-6.56,31.08-9.84,46.62-1.1,5.18.03,8.44,3.71,10.21,3.74,1.8,6.99.72,10.3-3.42,11.52-14.39,23.06-28.76,34.55-43.18,12.87-16.15,25.68-32.34,38.52-48.51v-5.24c-1.09-3.98-3.91-5.49-7.8-5.5Zm-57.33,68.3c-.22-.11-.45-.21-.67-.32,1.8-8.77,3.58-17.55,5.43-26.32,1.41-6.69-1.66-10.66-8.45-10.68-9.85-.04-19.69-.01-29.91-.01,2.56-7.58,5.02-14.94,7.52-22.29,4.04-11.85,8.12-23.69,12.14-35.55.59-1.75,1.13-2.91,3.5-2.87,10.59.17,21.19.07,32.24.07-4.42,11.55-8.68,22.65-12.89,33.76-2.7,7.1.53,11.8,8.09,11.82,7.98.02,15.96.01,24.86.01-14.23,17.8-28.04,35.09-41.86,52.38Z"/>
      <path class="cls-1" d="m224.48,334.52c-23.63-.49-45.3-9.01-63.36-26.36-3.86-3.7-4.32-8.28-1.28-11.5,3.24-3.44,7.48-3.36,11.51.47,14.37,13.67,31.44,21.25,51.22,22.05,21.33.86,40.09-5.97,56.03-20.28,1.02-.92,1.97-1.92,3.05-2.76,3.56-2.78,7.49-2.55,10.39.54,2.85,3.04,2.88,7.17-.14,10.41-3.48,3.76-7.48,6.97-11.63,9.94-16.28,11.65-34.49,17.29-55.79,17.5Z"/>
      <path class="cls-1" d="m310.63,188.72c-.08,4.26-3.44,7.44-7.74,7.31-4.22-.13-7.38-3.56-7.21-7.85.16-4.08,3.41-7.14,7.57-7.1,4.29.04,7.46,3.32,7.38,7.64Z"/>
    </g>
  </g>
</svg>