<?xml version="1.0" encoding="UTF-8"?>
<svg id="Layer_2" data-name="Layer 2" xmlns="http://www.w3.org/2000/svg" viewBox="0 0 498.96 511.78">
  <defs>
    <style>
      .cls-1 {
        fill: #f5f4ed;
        stroke-width: 0px;
      }
    </style>
  </defs>
  <g id="Layer_1-2" data-name="Layer 1">
    <g>
      <path class="cls-1" d="m498.88,75.9c-.16-16.08-12.1-28.09-28.09-28.33-5.16-.08-10.32-.11-15.48.01-3.78.09-5.51-1.42-5.41-5.29.12-4.49.03-8.98.02-13.48-.04-16.19-7.07-25.23-22.42-28.81h-41.98c-14.8,3.52-22.35,13.17-22.4,28.63-.01,4.83-.07,9.66.02,14.49.05,3.17-1.29,4.44-4.47,4.49-3.98.07-7.52-1.25-11.06-2.72-31.64-13.11-64.43-18.47-98.66-15.44-36.12,3.2-69.2,14.75-99.3,34.84-3.21,2.14-4.28,1.54-5.63-1.76-2.7-6.62-7.61-11.33-14.26-13.93-9.1-3.56-18.43-2.78-27.46-.04-24.53,7.45-44.81,21.37-61.65,40.72C15.5,118.21,2.83,152.09.43,189.91c-1.59,24.92,1.37,49.56,7.27,73.81,8.54,35.14,21.61,68.56,38.57,100.48,20.28,38.18,43.98,73.8,76.84,102.54,22.37,19.57,47.3,34.43,76.41,41.81,7.62,1.93,15.39,2.06,23.07,3.23h6.99c2.34-.81,4.67-.81,7,0h3c2-.81,4-.81,6,0h6.99c7.35-1.08,14.83-.75,22.12-2.71,9.54-2.55,18.83-5.8,27.57-10.25,11.01-5.61,21.43-12.21,28.35-23.02,6.49-10.13,6.74-20.24.29-30.47-2.48-3.91-2.44-4.17,2.25-5.68,8.58-2.76,16.93-6.09,24.98-10.1,46.82-23.3,81.04-58.76,101.93-106.76,18.62-42.82,21.74-87.14,11.44-132.47-4.04-17.78-10.67-34.66-19.26-50.75-2.32-4.34-1.9-5.08,3.03-5.17,5.16-.1,10.32.04,15.48-.04,15.48-.25,27.93-12.59,28.12-28,.13-10.15.11-20.31.01-30.46Zm-347.2,13.34c24.22-18.75,51.6-30.54,81.6-36.07,29.26-5.39,58.27-3.72,86.83,4.8.43.13.84.34,1.6.66-4.96,6.65-6.7,14.1-6.04,22.22-60.54-16.17-114.3-4.12-162.11,36.97-1.47-8.4-2.7-16.45-4.38-24.4-.57-2.66,1.18-3.16,2.5-4.18Zm158.68,377.72c-7.71,8.17-17.53,13.13-27.9,16.84-39.95,14.29-78.14,8.99-114.55-11.51-28.99-16.33-51.45-39.9-70.67-66.6-32.83-45.61-56.31-95.63-69.16-150.45-3.99-17.05-5.92-34.39-6.23-50.56.15-38.81,10.14-72.83,35.33-101.45,14.7-16.71,32.16-29.21,54.11-34.6,1.91-.47,3.93-.54,5.91-.71,4.8-.38,7.35,1.8,8.18,6.61,2.66,15.54,5.52,31.05,8.27,46.57,2.19,12.43,4.39,24.85,6.47,37.29,1.97,11.77-.65,17.24-11.04,22.86-12.93,6.99-18.44,18.65-20.38,32.41-3.2,22.81,1.96,44.6,8.8,66.09,11.53,36.25,31.19,67.38,59.49,92.86,8.58,7.73,18.28,13.74,29.83,16.31,7.77,1.73,15.15.9,22.4-2.2,11.14-4.76,15.94-4.21,24.43,4.83,14.03,14.93,27.54,30.33,41.26,45.54,5.25,5.81,10.49,11.62,15.69,17.47,4.37,4.92,4.45,7.43-.24,12.4Zm144.32-209.31c-6.35,58.82-34.15,105.03-82.49,138.86-17.83,12.47-37.58,20.99-58.66,26.45-2.63.69-4.15.29-5.89-1.77-4.92-5.82-10.09-11.43-15.67-17.71,10.63-1.95,20.53-4.29,30.12-7.74,20.06-7.23,38.19-17.75,54.12-31.96,5.34-4.76,6.13-10.8,2.18-15.31-4.09-4.68-9.77-4.72-15.39.18-21.71,18.97-46.91,30.38-75.27,35.02-.33.05-.66.06-.99.14-7.42,1.79-13.01.36-18.59-6-8.57-9.76-19.68-15.78-33.57-13.98-3.84.49-7.57,1.48-10.9,3.28-6.87,3.73-13.44,2.78-19.95-.57-13.33-6.86-23.26-17.59-32.51-29.03-22.97-28.41-36.91-60.83-42.28-96.89-1.43-9.55-1.75-19.25.7-28.76,1.45-5.65,4.1-10.4,9.69-13.17,18.49-9.16,23.76-24.13,20.48-43.22-1.75-10.18.59-16.48,8.1-23.14,29.92-26.51,64.67-39.25,104.46-38.27,13.5.33,26.7,3.01,39.58,7.14,2.4.77,3.69,1.65,3.79,4.71.51,15.94,11.93,26.89,27.83,27.08,5.83.07,11.66.18,17.49-.05,2.94-.12,3.6.93,3.52,3.67-.18,6.15-.11,12.32-.04,18.48.16,14.65,11.97,26.5,26.65,26.8q9.31.18,12.4,9.08c10.78,31.17,11.26,62.47,1.12,93.9-2.71,8.4,1.05,15.11,8.53,15.4,4.95.2,8.46-2.53,10.38-8.29,11.58-34.9,11.58-69.83-.06-104.69-1.33-4-1.2-5.48,3.43-6.17,6.59-.99,9.35-3.03,16.19-9.4,10.44,27.99,14.68,56.49,11.5,85.93Zm22.8-154.12c-.03,6.8-2.59,9.4-9.27,9.43-9.49.04-18.99-.04-28.48.02-7.04.05-11.07,4.07-11.14,11.17-.08,9.66.02,19.32-.03,28.98-.03,5.97-2.5,8.58-8.43,8.65-8.83.1-17.65.07-26.48.01-6.46-.05-9.09-2.69-9.12-9.12-.05-9.16,0-18.32-.02-27.48-.01-8.82-3.47-12.21-12.48-12.22-9.16-.01-18.32.04-27.48-.02-5.96-.03-8.63-2.5-8.72-8.42-.14-9.15-.16-18.32.01-27.48.1-5.67,2.75-8.1,8.45-8.14,9.49-.06,18.98.02,28.48-.03,7.85-.03,11.69-3.83,11.74-11.54.03-4.66,0-9.33.01-13.99,0-5-.09-10,.02-14.99.11-5.47,2.87-8.27,8.35-8.34,9.16-.1,18.33-.1,27.49,0,5.54.07,8.14,2.79,8.18,8.38.05,9.5-.02,18.99.02,28.48.04,8.04,3.94,11.97,11.91,12,9.33.04,18.66-.02,27.99.02,6.41.03,8.96,2.62,8.99,9.14.05,8.5.04,16.99,0,25.49Z"/>
      <path class="cls-1" d="m229.58,511.78c2.33-1.58,4.66-1.55,7,0h-7Z"/>
      <path class="cls-1" d="m239.58,511.78c2-1.49,4-1.53,6,0h-6Z"/>
      <path class="cls-1" d="m231.44,257.47c8.98,0,16.63-.18,24.26.06,6.51.2,10.61,3.99,10.86,9.38.27,5.95-3.76,10.72-9.92,10.79-16.15.2-32.31.13-48.47.03-4.42-.03-8.24-1.82-10.06-6.1-1.84-4.33-.09-8.1,2.75-11.46,10.75-12.71,21.53-25.4,32.23-38.14,2.89-3.44,5.34-7.18,6.72-11.55,1.66-5.28.32-9.69-3.85-12.13-4.47-2.61-9.97-1.54-13.47,2.61-2.42,2.87-3.32,6.47-4.74,9.81-2.68,6.3-6.27,8.64-11.72,7.51-5.69-1.18-8.19-4.98-7.89-11.96.78-17.86,19.27-32.53,37.76-29.95,16.88,2.35,27.39,12.61,28.08,27.84.43,9.58-3.53,17.75-9.15,25.23-7.07,9.43-14.82,18.31-23.38,28.04Z"/>
      <path class="cls-1" d="m342.8,236.82c-2.94-.29-3.43-1.41-3.36-4.01.16-6.31.05-12.64.05-18.96s.04-12.31-.01-18.46c-.09-9.28-4.6-16.07-11.93-18.12-8.72-2.44-15.95.76-20.84,9.34-9.74,17.14-19.44,34.3-29.14,51.47-.81,1.44-1.59,2.91-2.23,4.43-2.82,6.68.87,13.13,8.06,13.52,7.47.4,14.96.15,22.44.36,3.78.11,8.63-1.67,11,.88,1.78,1.9.52,6.64.62,10.12,0,.33,0,.66.03.99.35,6.15,4.88,10.52,10.95,10.54,6.01.03,10.64-4.33,11.01-10.5.15-2.65.2-5.33,0-7.97-.22-2.75.32-4.09,3.52-4.48,5.68-.68,8.84-4.51,8.76-9.62-.07-5.03-3.47-9-8.93-9.53Zm-27.66.14c-5.09-.18-10.2-.06-15.99-.06,6.04-11.82,11.81-23.1,17.57-34.37.31,0,.63-.01.94-.01v9.46c0,7.31-.04,14.62.02,21.93.02,1.85-.04,3.13-2.54,3.05Z"/>
      <path class="cls-1" d="m385.46,326.72c.04-5.76,4.32-10.03,10.04-10.02,5.73.01,10.05,4.37,9.99,10.06-.06,5.65-4.52,10.1-10.08,10.08-5.72-.03-9.99-4.37-9.95-10.12Z"/>
    </g>
  </g>
</svg>