<?xml version="1.0" encoding="UTF-8"?>
<svg id="Layer_2" data-name="Layer 2" xmlns="http://www.w3.org/2000/svg" viewBox="0 0 383.12 383.09">
  <defs>
    <style>
      .cls-1 {
        fill: #f5f4ed;
        stroke-width: 0px;
      }
    </style>
  </defs>
  <g id="Layer_1-2" data-name="Layer 1">
    <g>
      <path class="cls-1" d="m131.7,52.55c-.09,4.41-3.23,7.28-8.14,7.29-11.1.04-22.19.01-33.28.01s-21.69.02-32.54,0c-5.17-.02-8.33-2.89-8.33-7.47-.01-4.59,3.15-7.48,8.32-7.48,21.94-.02,43.88-.02,65.82,0,5.07.01,8.24,3.04,8.15,7.65Z"/>
      <path class="cls-1" d="m176.59,29.55c-.05-12.88-8.4-24.09-20.65-28.18-1.34-.44-2.99-.07-4.03-1.37H23.96c-.29.97-1.19.69-1.85.9C8.1,5.3.03,16.28.02,31.02c-.01,14.72-.05,29.43.01,44.14.07,16.23,13.26,29.44,29.43,29.58,5.49.04,10.99.22,16.46-.08,3.12-.17,3.73.98,3.53,3.74-.22,3.1-.05,6.23-.05,9.35.01,8.54,5.06,11.65,12.75,7.81,12.87-6.41,25.73-12.84,38.56-19.33,2.05-1.04,4.08-1.53,6.39-1.52,13.34.08,26.69.09,40.03.02,16.19-.09,29.38-13.31,29.45-29.54.07-15.22.06-30.43.01-45.64Zm-14.96,43.88c-.03,10.04-6.3,16.32-16.33,16.34-13.71.04-27.43.07-41.14-.03-2.96-.02-5.57.61-8.2,1.95-10.26,5.24-20.6,10.33-31.6,15.82,0-3.48.02-6.31,0-9.15-.03-5.89-2.75-8.56-8.74-8.57-8.1-.02-16.21.02-24.31-.01-10.03-.05-16.3-6.31-16.32-16.35-.04-14.09-.04-28.18,0-42.27.03-9.8,6.34-16.18,16.09-16.19,38.15-.03,76.31-.03,114.46,0,9.74.01,16.05,6.39,16.09,16.19.04,14.09.04,28.18,0,42.27Z"/>
      <path class="cls-1" d="m333.73,97.17c.04,4.71-3.16,7.57-8.61,7.57-21.69.02-43.38.02-65.07,0-5.47,0-8.66-2.84-8.61-7.57.04-4.67,3.23-7.38,8.79-7.38,10.84-.02,21.69-.01,32.53-.01s21.44-.01,32.16.01c5.56,0,8.76,2.71,8.81,7.38Z"/>
      <path class="cls-1" d="m382.62,69.42c-3.14-14.96-14.74-24.51-29.91-24.52-38.76-.02-77.51-.04-116.27,0-16.69.02-29.84,13.17-29.89,29.82-.06,14.95-.05,29.91-.01,44.86.05,16.91,13.14,30,30.05,30.05,12.84.05,25.68.07,38.51-.03,2.94-.02,5.52.56,8.16,1.91,12.93,6.61,25.91,13.08,38.93,19.51,6.1,3.01,11.47-.35,11.54-7.09.04-3.61.18-7.23-.05-10.83-.17-2.65.37-3.7,3.35-3.54,5.47.29,10.96.11,16.45.08,12.23-.08,22.98-7.45,27.51-18.84.77-1.93,1.42-3.9,2.13-5.85v-54.62c-.17-.3-.43-.59-.5-.91Zm-14.47,48.68c-.02,10.31-6.23,16.54-16.48,16.57-8.11.03-16.21,0-24.32.01-5.9.02-8.55,2.73-8.58,8.73-.01,2.74,0,5.48,0,8.96-10.38-5.18-20.28-9.98-30.03-15.05-3.65-1.89-7.27-2.76-11.39-2.71-13.09.18-26.19.09-39.28.06-10.31-.02-16.54-6.22-16.56-16.48-.03-13.96-.03-27.93,0-41.89.02-10.25,6.26-16.43,16.6-16.44,37.78-.01,75.56-.01,113.35,0,10.53,0,16.67,6.16,16.69,16.72.02,13.84.03,27.68,0,41.52Z"/>
      <path class="cls-1" d="m325.94,368.14c-17.08-.03-34.17-.01-51.25-.01h-32.82c12.27-8.05,22.05-17.2,30.38-27.88,1.19-1.52,2.42-2.13,4.38-2.11,4.85.03,9.69.12,14.55-.55,37.78-5.22,65.51-37.11,64.99-74.92-.18-13.45-10.07-25.59-23.19-28.49-6.42-1.43-12.92-.52-19.38-.68-2.04-.05-2.76-.38-2.58-2.64.32-3.97.27-7.97.25-11.96-.03-4.96-2.93-7.85-7.91-7.89-6.36-.05-12.72-.01-19.08-.01-19.45,0-38.91-.02-58.36.01-5.35.01-8.64,3.47-8.14,8.39.42,4.09,3.57,6.55,8.5,6.56,22.2.01,44.4,0,66.59.02,1.52,0,3.35-.84,3.19,2.35-.89,16.98-3.6,33.62-8.75,49.82-8.35,26.24-20.9,49.95-41.75,68.6-27.89,24.93-64.95,28.28-96.46,8.33-19.39-12.28-32.8-29.9-42.87-50.21-11.78-23.72-17.61-48.96-19.05-75.33-.17-3.04.44-3.66,3.38-3.64,22.07.12,44.14.07,66.21.06,5.46,0,8.66-2.86,8.6-7.6-.05-4.54-3.23-7.35-8.45-7.36-25.57-.01-51.13-.01-76.7.01-5.49,0-8.35,2.8-8.36,8.18-.1,27.53,4.55,54.21,15.05,79.71,11.4,27.72,27.99,51.52,53.24,68.55.07.05-.05.39-.09.68-27.31,0-54.62-.01-81.93,0-5.52,0-8.71,2.76-8.72,7.46s3.19,7.5,8.69,7.5c89.03,0,178.07,0,267.11-.02,1.23,0,2.52-.05,3.66-.44,3.46-1.21,5.38-4.68,4.81-8.34-.57-3.64-3.6-6.14-7.74-6.15Zm-16.94-117.57c.25-1.82,1-2.22,2.64-2.19,4.73.08,9.47-.05,14.2.05,8.9.18,15.35,6.88,15.36,15.84.03,26.86-20.73,52.21-47.12,57.47-1.94.39-3.92.57-5.89.85-.96-.58-2.39.47-3.13-.9,12.59-22.15,20.44-45.91,23.94-71.12Z"/>
      <path class="cls-1" d="m191.05,225.95c-4.2-.23-7.22-3.76-6.94-8.08.27-4.18,3.85-7.18,8.17-6.85,4.02.3,6.96,3.73,6.77,7.89-.19,4.22-3.67,7.28-7.99,7.04Z"/>
      <path class="cls-1" d="m131.7,52.55c-.09,4.41-3.23,7.28-8.14,7.29-11.1.04-22.19.01-33.28.01s-21.69.02-32.54,0c-5.17-.02-8.33-2.89-8.33-7.47-.01-4.59,3.15-7.48,8.32-7.48,21.94-.02,43.88-.02,65.82,0,5.07.01,8.24,3.04,8.15,7.65Z"/>
      <path class="cls-1" d="m333.73,97.17c.04,4.71-3.16,7.57-8.61,7.57-21.69.02-43.38.02-65.07,0-5.47,0-8.66-2.84-8.61-7.57.04-4.67,3.23-7.38,8.79-7.38,10.84-.02,21.69-.01,32.53-.01s21.44-.01,32.16.01c5.56,0,8.76,2.71,8.81,7.38Z"/>
      <path class="cls-1" d="m288.19,322.59c-1.15.07-2.6,1.19-3.13-.9.74,1.37,2.17.32,3.13.9Z"/>
      <path class="cls-1" d="m288.19,322.59c-.82.65-1.82.69-2.77.63-1.56-.1-1.15-.8-.36-1.53.74,1.37,2.17.32,3.13.9Z"/>
      <path class="cls-1" d="m131.7,52.55c-.09,4.41-3.23,7.28-8.14,7.29-11.1.04-22.19.01-33.28.01s-21.69.02-32.54,0c-5.17-.02-8.33-2.89-8.33-7.47-.01-4.59,3.15-7.48,8.32-7.48,21.94-.02,43.88-.02,65.82,0,5.07.01,8.24,3.04,8.15,7.65Z"/>
      <path class="cls-1" d="m333.73,97.17c.04,4.71-3.16,7.57-8.61,7.57-21.69.02-43.38.02-65.07,0-5.47,0-8.66-2.84-8.61-7.57.04-4.67,3.23-7.38,8.79-7.38,10.84-.02,21.69-.01,32.53-.01s21.44-.01,32.16.01c5.56,0,8.76,2.71,8.81,7.38Z"/>
    </g>
  </g>
</svg>