<?xml version="1.0" encoding="UTF-8"?>
<svg id="Layer_2" data-name="Layer 2" xmlns="http://www.w3.org/2000/svg" viewBox="0 0 452.09 509.94">
  <defs>
    <style>
      .cls-1 {
        fill: #f5f4ed;
        stroke-width: 0px;
      }
    </style>
  </defs>
  <g id="Layer_1-2" data-name="Layer 1">
    <g>
      <path class="cls-1" d="m451.93,325.57c0-6.73-2.83-10.18-9.38-11.28-17.48-2.95-34.82-6.42-51.56-12.44-3.41-1.23-5.04-2.67-4.99-6.89.29-26.43.15-52.87.12-79.3,0-1.98.02-4.06-.57-5.89-1.48-4.63-6.02-7.08-11.08-6.36-4.97.72-8.28,4.59-8.29,10.14-.06,23.28,0,46.56-.07,69.83,0,1.54.6,3.22-.61,4.89-1.46-1.26-2.84-2.4-4.16-3.6-6.18-5.66-10.77-5.7-16.84.13-5.58,5.36-12.06,9.3-18.99,12.57-14.47,6.84-29.79,11.09-45.46,13.77-10.05,1.72-19.79,5.45-30.08,5.47-55.2.1-110.4.04-165.6.07-2.31,0-4.67.05-6.93.49-4.77.92-7.8,4.74-7.87,9.5-.08,6.5,4.49,10.37,12.43,10.37,55.53,0,111.06.07,166.59-.12,4.59-.02,5.43,1.32,5.29,5.5-.32,9.3-.37,18.63.01,27.93.2,4.63-.79,6.03-5.78,6.02-57.2-.21-114.39-.14-171.58-.14-1.5,0-3.01-.11-4.49.07-5.34.63-9.15,4.84-9.17,10.02-.03,5.36,3.45,9.27,9.05,9.96,1.97.25,3.98.23,5.97.23,57.36.01,114.72.05,172.08-.08,3.81,0,5.05,1.06,5.59,4.85,1.46,10.21,4.85,19.9,9.27,29.22,6.06,12.8,14.26,24.18,24.42,35.42H52.22c-20.84,0-32.24-11.44-32.25-32.35,0-120.04,0-240.08.01-360.12,0-1.49-.04-2.99.03-4.48.61-14.19,10.18-25.6,24.29-27.23,16.36-1.89,32.87-.34,49.31-.73,2.74-.07,2.19,1.74,2.3,3.32.82,11.7,7.95,18.69,19.55,18.71,51.7.06,103.41.06,155.12,0,11.64-.01,19.05-7.05,19.55-18.6.13-2.99,1.13-3.48,3.77-3.46,13.8.11,27.6.02,41.4.06,18.9.05,30.83,11.96,30.85,30.79.02,20.28-.03,40.57.02,60.85,0,6.46,3.96,10.79,9.74,10.94,6.03.14,10.2-4.19,10.21-10.94.04-21.28.16-42.56-.05-63.84-.26-26.73-21.58-47.71-48.39-47.85-14.47-.07-28.93-.1-43.4.06-3.12.03-4.08-.64-4.18-3.99-.31-10.6-7.28-17.06-17.73-17.06H113.76c-10.42,0-17.39,6.46-17.73,17.08-.11,3.38-1.12,4-4.2,3.97-14.8-.15-29.6-.18-44.39-.04C21.72,21.26.07,42.75.05,68.37c-.08,123.37-.03,246.73-.05,370.09,0,6.76,1.36,13.26,4.37,19.23,9.46,18.8,24.75,28.26,45.93,28.25,85.29-.05,170.58-.01,255.87-.08,3.18,0,5.6.77,8.01,2.89,5.99,5.26,12.24,10.19,18.93,14.57,13.21,8.63,26.6,9.01,39.53.02,20.81-14.48,40.14-30.73,55.39-51.21,14.28-19.18,23.25-40.56,23.81-64.71.49-20.61.12-41.23.09-61.85ZM116.15,38.08c.31-5.13.19-10.3.03-15.44-.09-2.63.42-3.76,3.46-3.75,49.03.09,98.05.08,147.08.01,2.67,0,3.39.84,3.31,3.41-.17,5.47-.29,10.98.04,16.44.22,3.69-1.21,4.29-4.52,4.27-24.26-.13-48.52-.07-72.79-.07s-47.86-.11-71.79.11c-4.05.03-5.06-1.17-4.82-4.98Zm289.77,409.46c-11.94,13.97-26.04,25.62-40.73,36.52-10.33,7.67-14.08,7.72-24.39-.03-17.82-13.39-35.12-27.43-48.09-45.9-12.21-17.4-19.3-36.48-18.54-58.08.19-5.47.03-10.96.03-16.45,0-8.8.12-17.61-.06-26.42-.07-3.2.7-4.5,4.18-5.13,21.22-3.82,42.06-9.01,61.28-19.21,4.64-2.46,8.93-7.61,13.46-7.7,4.28-.09,8.53,5.1,13.04,7.52,19.17,10.3,40,15.55,61.22,19.35,3.78.68,4.81,1.92,4.74,5.65-.23,13.46-.36,26.93-.03,40.38.67,26.75-9.03,49.52-26.11,69.5Z"/>
      <path class="cls-1" d="m183.5,149.67c-.12-12.63-8.91-21.45-21.64-21.75q-8.31-.2-8.62-8.43c-.51-13.48-9.04-21.66-22.61-21.69-5.32,0-10.63-.03-15.95.01-12.46.07-21.35,8.7-21.74,21.07q-.27,8.75-8.97,9.04c-12.49.42-21.05,9.18-21.11,21.63-.02,2.83,0,5.65,0,8.47,0,2.66-.01,5.32,0,7.98.04,13.21,8.33,21.8,21.49,22.26q8.44.29,8.59,8.43c.23,12.94,9.12,21.68,22.11,21.74,5.31.02,10.63.02,15.94,0,13.13-.05,21.69-8.36,22.24-21.6q.35-8.32,8.51-8.57c13.08-.41,21.68-9.15,21.76-22.15.04-5.48.05-10.96,0-16.44Zm-21.02,17.01c-2.69,3.41-9.61.89-14.68,1.1-3.98.16-8.03-.22-11.32,2.66-2.67,2.34-3.66,5.42-3.64,8.9.01,5.14-.16,10.3.06,15.44.12,2.92-.94,3.73-3.72,3.59-4.14-.21-8.3-.19-12.45-.01-2.63.12-3.51-.84-3.43-3.42.16-4.48.06-8.97.04-13.45-.03-10.16-3.57-13.65-13.81-13.67h-5.48q-11.22,0-11.22-11.33,0-8.14,7.97-8.14c3.82,0,7.64.13,11.45-.03,6.91-.31,10.72-4,11.03-10.9.24-5.3.19-10.63.01-15.94-.09-2.8.77-3.85,3.67-3.68,3.97.23,7.98.24,11.95,0,2.98-.18,4.17.6,4,3.81-.27,4.97-.13,9.96-.06,14.94.11,7.62,4.02,11.6,11.68,11.79,5.14.12,10.3.13,15.44-.02,2.6-.08,3.54.8,3.41,3.42-.26,5.11,1.63,11.74-.9,14.95Z"/>
      <path class="cls-1" d="m194.05,257.34c37.73,0,75.46-.03,113.19.02,8.48.01,13.5,7.41,9.92,14.4-1.71,3.34-4.48,5.24-8.27,5.54-.66.05-1.33.03-1.99.03-75.29,0-150.59,0-225.88,0-6.17,0-10.18-2.82-11.18-7.73-1.38-6.75,2.94-12.19,10.03-12.23,18.12-.09,36.23-.04,54.35-.04,19.95,0,39.89,0,59.84,0Z"/>
      <path class="cls-1" d="m270.87,158.4c-14.8,0-29.59.1-44.38-.03-9.14-.08-14.5-7.65-10.7-14.84,2.08-3.93,5.64-5.59,9.88-5.6,30.09-.05,60.18-.09,90.27.02,6.65.03,11.24,4.56,11.17,10.28-.07,5.74-4.64,10.06-11.35,10.12-14.96.14-29.92.05-44.88.05Z"/>
      <path class="cls-1" d="m268.44,217.7c-13.94,0-27.88.03-41.82-.01-7.54-.02-12.16-3.99-12.01-10.16.14-5.9,4.88-9.92,11.9-9.93,28.21-.03,56.43-.03,84.64,0,5.66,0,9.73,2.49,10.92,6.85,1.24,4.54.24,8.52-3.72,11.49-2.29,1.72-4.92,1.76-7.59,1.76-14.11,0-28.21,0-42.32,0Z"/>
      <path class="cls-1" d="m386.11,173.4c-.05,5.67-4.51,10.15-10.06,10.09-5.5-.06-9.93-4.67-9.9-10.29.03-5.63,4.53-10.12,10.1-10.06,5.58.06,9.9,4.56,9.86,10.27Z"/>
      <path class="cls-1" d="m317.25,385.99c2.92-.27,5.37,1.39,7.6,3.48,4.25,3.97,8.75,7.72,12.61,12.03,3.15,3.52,4.84,2.55,7.55-.49,12.7-14.26,25.65-28.3,38.46-42.48,2.8-3.1,5.88-5.44,10.3-4.82,3.91.55,6.78,2.72,8.15,6.45,1.44,3.93.53,7.55-2.23,10.62-6.1,6.8-12.28,13.53-18.42,20.29-10.06,11.06-20.1,22.13-30.17,33.18-6.07,6.66-11.26,6.9-17.86.77-7.67-7.12-15.28-14.3-22.89-21.48-3.53-3.33-4.41-7.42-2.49-11.78,1.66-3.77,4.75-5.87,9.41-5.79Z"/>
    </g>
  </g>
</svg>