<?xml version="1.0" encoding="UTF-8"?>
<svg id="Layer_2" data-name="Layer 2" xmlns="http://www.w3.org/2000/svg" viewBox="0 0 383.23 320.85">
  <defs>
    <style>
      .cls-1 {
        fill: #f5f4ed;
        stroke-width: 0px;
      }
    </style>
  </defs>
  <g id="Layer_1-2" data-name="Layer 1">
    <g>
      <path class="cls-1" d="m381.09,220.19c-5.76-13.56-20.87-19.62-34.87-13.8-16.14,6.72-32.22,13.58-48.29,20.49-2.14.92-2.94.74-3.86-1.59-4.34-11.01-13.85-16.87-26.19-16.47-17.06.55-34.13,1.2-51.2,1.6-10.47.23-20.95.09-31.42.06-3.78-.01-7.11-.84-10.19-3.58-5.39-4.79-11.55-8.61-18.06-11.8-14.33-7-29.22-9.77-44.82-5.08-15.36,4.62-26.51,14.87-35.44,27.76-1.44,2.09-2.9,2.88-5.43,2.87-20.2-.1-40.4.01-60.6-.11-4.52-.03-8.23,1-10.72,4.99v79.32c2.32,3.9,5.69,5.26,10.25,5.19,20.81-.32,41.63-.34,62.45-.59,3.07-.03,5.82.56,8.61,1.8,13.9,6.17,28.36,9.66,43.7,9.6,40.89-.19,81.79-.17,122.68-.18,12.24,0,23.73-2.91,33.96-9.57,30.12-19.6,60.16-39.34,90.08-59.24,10.66-7.09,14.23-20.18,9.36-31.67Zm-18.45,19.57c-29.57,19.54-59.18,39.03-88.85,58.42-7.89,5.16-16.76,7.42-26.18,7.43-21.19.02-42.39.01-63.58.01v.04c-19.2,0-38.4-.24-57.59.07-13.99.23-27.13-2.82-39.69-8.62-4.17-1.92-8.31-2.83-12.92-2.77-18.57.25-37.15.18-55.72.39-2.72.04-3.22-.79-3.2-3.31.11-17.45.12-34.91-.01-52.36-.02-2.65.69-3.26,3.28-3.24,19.94.15,39.89.09,59.84.19,3.5.02,5.93-1.4,7.66-4.31,3.2-5.37,6.87-10.39,11.24-14.87,13.57-13.92,30.45-17.5,48.49-10.32,8.06,3.21,15.44,7.65,21.76,13.49,4.19,3.87,8.9,5.26,14.23,5.4,24.93.66,49.85-.17,74.77-1,4.6-.16,9.21-.36,13.82-.39,3.7-.03,7.01,1.28,8.88,4.55,2.45,4.31,3.17,6.58-1.42,10.17-14.16,11.08-30.13,16.49-48.07,16.41-18.45-.08-36.9-.02-55.35-.02-.88,0-1.75-.02-2.62.01-5.44.18-8.68,3.11-8.58,7.73.11,4.58,3.46,7.46,8.89,7.47,20.08.02,40.15.23,60.22-.07,22.37-.33,41.99-8.11,58.71-23.06,1.12-.99,2.26-1.83,3.69-2.43,19.2-8.08,38.35-16.26,57.54-24.36,5.94-2.51,12.07-.48,14.82,4.73,2.8,5.3,1.38,11.03-4.06,14.62Z"/>
      <path class="cls-1" d="m355.89,84.1c-.61-4.11-2.81-6.97-7.16-7.38-2.25-.21-2.11-1.24-1.97-2.96.91-10.34.67-20.65-1.11-30.9-.62-3.54-2.63-5.97-6.22-6.56-14.11-2.34-28.23-2.69-42.26.52-2.28.52-3.52.05-4.88-1.91-8.99-12.91-20.26-23.58-32.96-32.79-3.94-2.86-6.97-2.8-10.9.06-12.67,9.24-23.99,19.84-32.93,32.81-1.37,2-2.72,2.29-4.94,1.78-13.04-3.03-26.21-2.78-39.35-.97-7.23,1-8.68,3.1-9.6,10.48-1.14,9.19-1.32,18.38-.64,27.6.11,1.4.32,2.46-1.78,2.86-5,.97-6.48,2.97-7.31,8.03-1.21,7.4-1.67,14.84-1.75,24.15,0,7.03.63,15.84,2.58,24.5,4.81,21.47,16.1,37.74,37.16,46.09,16.72,6.63,34.15,7.23,51.8,6.02,5.42-.37,10.72-1.95,16.27-1.1,15.51,2.35,31.01,2.43,46.41-.85,16.74-3.56,31.11-11,40.8-25.75,6.32-9.63,9.55-20.36,11.23-31.67,2.08-14.07,1.58-28.07-.49-42.06Zm-26.44-33.84c1.18.15,1.99.15,2.15,1.78.67,6.83.95,13.63.11,20.47-.25,1.98-.87,2.4-2.75,2.29-6.6-.42-13.17.06-19.72.92-1.48.2-2.54.43-2.57-1.78-.09-7.78-2.05-15.19-5.04-22.64,9.48-1.91,18.62-2.17,27.82-1.04Zm-153.25,2.17c.12-1.15.3-1.99,1.88-2.17,9.33-1.08,18.58-.91,28.04,1.02-2.79,7.57-5.06,15.03-4.86,22.98.05,1.74-.92,1.7-2.15,1.53-6.8-.94-13.63-1.41-20.48-.98-1.84.11-2.49-.63-2.59-2.24-.42-6.72-.57-13.44.16-20.14Zm69.27,115.74c-.12,1.11-.27,1.85-1.62,1.98-16.49,1.55-32.81,1.4-48.55-4.74-15.71-6.12-23.9-18.4-27.58-34.16-2.98-12.74-2.97-25.67-1.67-38.63.15-1.52.78-1.7,2.06-1.9,4.96-.73,9.94-.7,14.91-.77,9.4-.23,18.62.87,27.67,3.45,18.45,5.26,29.01,17.83,33.17,36.14,2.89,12.75,3.02,25.67,1.61,38.63Zm8.46-55.98c-5.24-11.63-12.79-20.33-23.17-26.49-3.53-2.1-7.2-4.03-11.13-5.13-2.92-.83-3.49-2.34-3.45-5.05.15-10.56,3.91-19.91,9.46-28.63,7.03-11.05,16.17-20.19,26.32-28.36,1-.8,1.76-1.86,3.4-.5,13.87,11.43,26.24,24.04,33.05,41.14,2.23,5.62,3.22,11.46,3.15,17.49-.02,1.76-.5,2.95-2.41,3.59-16.11,5.49-28,15.73-35.22,31.94Zm82.67,29.78c-6.45,15.57-19.03,23.25-34.8,26.72-12.28,2.7-24.68,2.69-37.14,1.52-1.55-.15-2.03-.69-2.28-2.19-.81-4.95-.52-9.95-.86-13.87.03-12.67,1.27-24.11,5.77-34.98,6.88-16.62,20.44-24.31,37.19-27.53,11.45-2.19,23-2.19,34.57-.93,1.46.15,2.62.15,2.8,2.1,1.54,16.74,1.31,33.3-5.25,49.16Z"/>
      <path class="cls-1" d="m136.5,255.22c4.2-.02,7.69,3.41,7.65,7.53-.03,3.99-3.8,7.66-7.76,7.56-3.89-.1-7.37-3.59-7.46-7.48-.09-4.12,3.35-7.59,7.57-7.61Z"/>
    </g>
  </g>
</svg>