<?xml version="1.0" encoding="UTF-8"?>
<svg id="Layer_2" data-name="Layer 2" xmlns="http://www.w3.org/2000/svg" viewBox="0 0 383.86 383.11">
  <defs>
    <style>
      .cls-1 {
        fill: #f5f4ed;
        stroke-width: 0px;
      }
    </style>
  </defs>
  <g id="Layer_1-2" data-name="Layer 1">
    <g>
      <path class="cls-1" d="m209.27,7.14c-3.61-3.68-8.16-5.49-12.84-7.14h-9c-.52.65-1.31.61-2.02.81-11.97,3.37-19.4,14.87-17.55,27.14,1.58,10.53,9.81,18.84,20.33,20.54,10.21,1.65,20.74-3.77,25.5-13.13,4.81-9.47,3-20.64-4.42-28.22Zm-17.29,26.5c-5.01.04-9.18-4.16-9.2-9.27-.02-5.13,4.07-9.34,9.1-9.37,5-.04,9.18,4.17,9.2,9.26.02,5.12-4.07,9.34-9.1,9.38Z"/>
      <path class="cls-1" d="m47.19,182.81c-5-12.96-19.91-19.18-32.67-13.58-7.87,3.46-12.13,9.9-14.52,17.84v8.98c.77.62.63,1.57.87,2.38,3.99,13.3,18.42,20.71,31.51,16.21,12.92-4.43,19.72-19.07,14.81-31.83Zm-23.07,17.86c-5.09-.09-9.27-4.4-9.09-9.36.18-5.05,4.4-8.96,9.58-8.87,5.08.09,9.27,4.4,9.09,9.36-.18,5.05-4.41,8.97-9.58,8.87Z"/>
      <path class="cls-1" d="m382.98,184.68c-4.1-13.64-18.96-20.98-32.17-15.89-13.49,5.19-19.62,20.7-13.25,33.54,6.3,12.72,22.23,17.41,34.43,10.19,6.37-3.78,9.75-9.66,11.87-16.47v-8.98c-.78-.62-.63-1.57-.88-2.39Zm-23.62,16c-5.1-.05-9.3-4.27-9.2-9.25.09-5.04,4.3-9.04,9.45-9,5.11.05,9.31,4.27,9.22,9.25-.1,5.03-4.32,9.05-9.47,9Z"/>
      <path class="cls-1" d="m134.43,185.3c-7.55-11.26-17.83-19.34-29.81-25.38-6.96-3.52-14.27-5.8-24.07-5.83-6.27-.09-13.58,2.34-19.79,7.64-8.94,7.63-9.96,18.97-2.4,27.77,1.49,1.74,1.36,2.5-.06,4.15-7.02,8.19-6.66,18.5.89,26.22,5.64,5.77,12.74,9.09,20.71,8.98,24.62-.35,42.01-13.41,55.46-32.75,2.51-3.6,1.38-7.35-.93-10.8Zm-15.31,8.01c-9.45,10.1-20.12,18.11-34.2,20.47-.86.14-1.74.16-2.58.23-3.68-.25-7.16-.98-10.27-3.03-4.43-2.91-4.65-5.75-.54-9.08,2.89-2.35,5.22-5.01,5.66-8.85.55-4.76-1.45-8.39-5.08-11.36-4.88-3.98-4.59-7.07.91-10.13,6.26-3.49,12.69-2.74,19.11-.49,10.59,3.71,19.21,10.29,26.73,18.44,1.14,1.23,1.65,2.3.26,3.8Z"/>
      <path class="cls-1" d="m228.99,295.15c-3.39-18.76-13.87-33.29-28.72-44.78-6.64-5.14-9.96-5.03-16.78.05-11.02,8.2-19.12,18.78-24.67,31.32-2.63,5.96-4.38,12.13-4.43,20.18-.18,6.41,2.04,13.52,6.95,19.7,7.8,9.82,19.25,11.04,28.83,3,1.53-1.28,2.2-1.09,3.59.08,9.38,7.81,20.48,6.81,28.34-2.59,6.56-7.86,8.66-17.12,6.89-26.96Zm-17.85,16.41c-2.69,3.99-5.65,4.15-8.66.39-2.95-3.69-6.35-6.23-11.37-5.93-4.08.25-6.89,2.48-9.33,5.47-3.62,4.44-6.47,4.19-9.53-.68-1.92-3.04-2.58-6.41-2.83-9.81.66-10.18,5.27-18.58,11.16-26.44,2.77-3.69,5.91-7.05,9.36-10.14,1.28-1.15,2.35-1.51,3.81-.15,10.12,9.44,18.17,20.1,20.43,34.17.76,4.71-.37,9.16-3.04,13.12Z"/>
      <path class="cls-1" d="m325.28,189.78c8.03-9.59,6.79-21.02-3.05-28.78-6.09-4.8-13.09-7.01-20.84-6.76-1.37,0-2.75-.02-4.12.01-.49,0-.99.1-1.48.2-18.86,3.75-33.57,14.03-45.1,29.02-4.91,6.37-4.84,9.72-.04,16.13,9.98,13.34,22.94,22.79,38.91,27.63,11.52,3.49,22.75,2.57,32.62-5.11,9.89-7.68,11.12-19.25,3.13-28.76-1.2-1.43-1.28-2.09-.03-3.58Zm-13.23,11.87c4.51,3.65,4.19,6.74-.88,9.74-2.65,1.57-6.79,2.64-10.42,2.56-9.8-.71-18.27-5.48-26.2-11.48-3.48-2.63-6.63-5.64-9.58-8.86-1.38-1.5-1.37-2.65.02-4.11,9.32-9.84,19.81-17.74,33.6-20.1,4.72-.81,9.18.17,13.21,2.75,4.47,2.86,4.63,5.73.52,9.07-3.1,2.53-5.46,5.37-5.7,9.6-.27,4.69,1.95,8.01,5.43,10.83Z"/>
      <path class="cls-1" d="m220.91,59.67c-7.62-8.02-18.45-8.68-26.78-1.55-1.87,1.6-2.71,1.41-4.45-.07-7.85-6.68-17.8-6.56-25.42.42-8.53,7.81-11.32,17.98-9.47,28.92,3.3,19.47,14.19,34.47,29.89,46.06,5.83,4.3,8.88,4.1,14.91-.22,11.41-8.18,19.64-18.96,25.37-31.69,2.78-6.17,4.56-12.6,4.52-16.11-.04-11.88-2.63-19.5-8.57-25.76Zm-18.05,49.44c-2.64,3.47-5.63,6.64-8.9,9.55-1.3,1.16-2.35,1.55-3.81.2-10.12-9.43-18.19-20.08-20.48-34.15-.74-4.57.31-8.91,2.83-12.81,2.87-4.44,5.71-4.56,9.11-.5,4.98,5.95,10.83,7.4,16.38,4.06,1.85-1.12,3.17-2.77,4.54-4.39,3-3.57,5.73-3.46,8.47.26,2.1,2.85,3.48,7.39,3.39,11.48-.73,9.93-5.52,18.39-11.53,26.3Z"/>
      <path class="cls-1" d="m155.82,236.78c-.82-5.32-4.1-8.25-9.35-9.25-4.19-.8-8.41-.98-10.84-1.02-12.65.01-23.14,1.9-33.06,6.27-12.21,5.38-21.38,13.56-24.19,27.33-2.59,12.7,5.12,23.22,18.07,24.22,2.43.19,2.39,1.33,2.51,3.05.68,10.33,8.5,17.84,18.85,17.87,12.46.04,21.78-6.05,28.22-16.16,10.2-16.03,12.62-33.75,9.79-52.31Zm-14.12,12.71c-.15,9.53-1.7,18.8-6.01,27.4-3.17,6.32-7.5,11.44-14.91,12.99-4.96,1.04-7.25-.78-6.76-5.79.28-2.9.39-5.7-.87-8.4-2.15-4.6-6.88-7.4-12.31-6.48-6.23,1.07-9.38-1.28-6.95-8.69,1.7-5.2,5.44-8.84,10.13-11.51,10.98-6.24,22.96-7.76,35.34-7.34,1.81.06,2.39.94,2.35,2.58-.04,1.75-.01,3.49-.01,5.24Z"/>
      <path class="cls-1" d="m147.46,96.23c-4.61-8.02-11.07-14.04-20.08-16.93-15.19-4.87-26.21,1.86-28.44,17.53-.36,2.54-1.95,1.8-3.21,1.89-9.91.73-17.53,8.41-17.7,18.3-.23,13.24,6.46,22.71,17.26,29.45,11.73,7.32,24.82,9.96,39.18,10.16,2.06-.09,4.82-.1,7.55-.36,10.25-.95,13.33-3.43,14.39-13.59,1.71-16.3-.64-32.02-8.95-46.45Zm-13.74,45.2c-10.46-.02-20.54-2.04-29.72-7.35-5.5-3.19-9.52-7.57-10.74-14.05-.82-4.34.96-6.44,5.35-6.29.87.04,1.74.2,2.61.27,7.89.59,14.09-5.37,12.89-13.15-1.15-7.45,2.46-9.4,9.2-6.95,5.34,1.94,8.89,5.89,11.52,10.68,4.97,9.03,6.67,18.88,6.96,27.78-.27,10.39,1.27,9.08-8.07,9.06Z"/>
      <path class="cls-1" d="m287.17,98.74c-2.36,0-2.14-1.35-2.25-2.87-.74-10.57-8.56-18.05-19.11-18.01-12.46.05-21.72,6.22-28.11,16.36-10.05,15.95-12.5,33.55-9.67,51.97.72,4.65,3.18,7.9,8.15,9.06,4.54,1.06,9.12,1.22,12.55,1.33,11.37.02,21.27-1.68,30.73-5.49,11.92-4.8,21.44-12.15,25.3-25.07,4.58-15.34-4.92-27.3-17.59-27.28Zm2.98,23.14c-1.55,5.46-5.27,9.22-10.01,12.03-9.37,5.57-19.73,7.27-28.93,7.61-10.28-.25-9.05,1.13-9.07-7.55-.02-10.58,1.94-20.76,7.31-30.05,3.09-5.35,7.28-9.4,13.64-10.7,4.96-1.01,7.28.81,6.74,5.81-.37,3.44-.36,6.73,1.61,9.69,2.85,4.27,6.96,5.73,11.98,5.19,6.62-.71,8.54,1.56,6.73,7.97Z"/>
      <path class="cls-1" d="m288.36,236.51c-11.64-7.22-24.62-9.77-38.15-9.72-2.74,0-5.5-.18-8.23.03-9.77.77-12.76,3.06-14.19,12.01-2.19,13.67-.44,27.03,4.64,39.89,4.72,11.94,12.07,21.42,24.98,25.38,15.75,4.83,27.84-5.23,27.54-17.67-.06-2.54,1.69-1.95,3.04-2.05,10.31-.74,17.87-8.56,17.85-18.91-.03-13.06-6.78-22.33-17.48-28.96Zm-4.21,32.76c-2.28-.26-4.5-.29-6.65.39-5.2,1.63-8.79,6.9-7.78,12.55,1.36,7.57-2.61,9.51-9.48,6.85-4.77-1.85-8.07-5.3-10.61-9.56-5.5-9.25-7.19-19.46-7.57-28.63.27-10.54-1.25-9.2,8.05-9.19,10.6.01,20.8,2.04,30.04,7.53,5.08,3.02,8.95,7.06,10.24,13.12,1.13,5.32-.75,7.58-6.24,6.94Z"/>
      <path class="cls-1" d="m310.41,48.82c-13.21,0-24.24,10.9-24.5,24.21-.25,13.24,10.9,24.57,24.34,24.72,13.32.16,24.63-11,24.69-24.37.05-13.33-11.16-24.55-24.53-24.56Zm-.15,33.62c-5.22-.06-9.05-4.02-9-9.29.06-5.22,4.01-9.04,9.3-8.98,5.25.06,9.06,3.99,9,9.28-.06,5.23-4.01,9.05-9.3,8.99Z"/>
      <path class="cls-1" d="m310.21,285.36c-13.32.17-24.22,11.11-24.3,24.38-.08,13.3,11.19,24.59,24.53,24.55,13.38-.04,24.59-11.29,24.5-24.59-.1-13.39-11.4-24.52-24.73-24.34Zm-.08,33.58c-5.21-.11-8.98-4.11-8.87-9.42.11-5.18,4.13-8.95,9.44-8.85,5.19.11,8.97,4.13,8.86,9.42-.11,5.21-4.11,8.96-9.43,8.85Z"/>
      <path class="cls-1" d="m73.59,48.82c-13.32-.12-24.61,11.06-24.66,24.42-.06,13.32,11.18,24.54,24.55,24.51,13.27-.02,24.24-10.88,24.47-24.21.23-13.26-10.95-24.6-24.36-24.72Zm-.37,33.62c-5.21-.09-9-4.08-8.92-9.37.08-5.21,4.07-9,9.38-8.9,5.23.1,9.01,4.06,8.92,9.36-.09,5.2-4.09,9-9.38,8.91Z"/>
      <path class="cls-1" d="m73.38,285.36c-13.28.07-24.27,10.96-24.45,24.23-.18,13.26,10.99,24.57,24.39,24.7,13.31.13,24.58-11.06,24.63-24.45.04-13.35-11.2-24.56-24.57-24.48Zm-.14,33.58c-5.23-.08-9.02-4.04-8.94-9.34.08-5.21,4.05-9,9.36-8.93,5.21.08,9.02,4.05,8.94,9.34-.08,5.22-4.06,9.01-9.36,8.93Z"/>
      <path class="cls-1" d="m191.99,334.48c-13.55-.01-24.6,10.94-24.57,24.35.03,13.42,11.07,24.3,24.64,24.28,13.32-.02,24.23-10.84,24.38-24.17.14-13.35-10.96-24.46-24.45-24.46Zm-.2,33.63c-5.03-.1-9.05-4.32-9.01-9.46.05-5.08,4.3-9.28,9.29-9.18,5.03.1,9.06,4.33,9.01,9.45-.06,5.08-4.3,9.29-9.29,9.19Z"/>
      <path class="cls-1" d="m159.15,199.04c-4.15-.02-7.67-3.55-7.59-7.61.08-4.1,3.63-7.44,7.83-7.35,4.1.09,7.26,3.3,7.29,7.41.04,4.26-3.27,7.57-7.54,7.55Z"/>
      <path class="cls-1" d="m224.5,199.04c-4.23-.07-7.48-3.51-7.33-7.75.14-4.09,3.39-7.21,7.51-7.21,4.18,0,7.69,3.49,7.63,7.57-.07,4.12-3.6,7.47-7.8,7.4Z"/>
      <path class="cls-1" d="m184.43,224.32c-.04-4.28,3.23-7.59,7.5-7.59,4.1,0,7.38,3.17,7.49,7.23.12,4.18-3.21,7.76-7.32,7.88-4.06.12-7.62-3.37-7.67-7.53Z"/>
      <path class="cls-1" d="m199.43,158.93c-.02,4.25-3.39,7.52-7.65,7.44-4.1-.08-7.3-3.29-7.34-7.38-.05-4.19,3.35-7.71,7.46-7.73,4.09-.02,7.55,3.49,7.53,7.67Z"/>
    </g>
  </g>
</svg>