<?xml version="1.0" encoding="UTF-8"?>
<svg id="Layer_2" data-name="Layer 2" xmlns="http://www.w3.org/2000/svg" viewBox="0 0 357.79 383.12">
  <defs>
    <style>
      .cls-1 {
        fill: #f5f4ed;
        stroke-width: 0px;
      }
    </style>
  </defs>
  <g id="Layer_1-2" data-name="Layer 1">
    <g>
      <path class="cls-1" d="m322.88,148.59c-6.8-42.4-50.59-71.12-92.2-60.48-8.23,2.11-15.89,5.43-23.5,10.02,0-3.33.08-6.18-.02-9.02-.39-10.95-8.29-18.64-19.21-18.7-7.87-.04-15.74-.01-23.61-.01-16.62,0-33.24-.07-49.85.07-2.68.02-3.31-.72-3.24-3.3.2-7.23-.07-14.47.15-21.69.55-18.15,18.95-33.09,36.88-30.08,16.82,2.82,27.46,14.61,28.44,31.49.31,5.23,3.54,8.63,8.03,8.45,4.4-.18,7.51-3.77,7.24-8.72-1.01-18.67-9.81-32.45-26.22-41.48-4.84-2.66-10.2-3.6-15.38-5.14h-13.49c-.33.68-.97.65-1.58.76-21.36,3.97-37.51,21.73-38.93,43.28-.52,7.83-.3,15.7-.29,23.55.01,1.87-.35,2.87-2.36,3.43-9.63,2.67-14.51,9.14-14.52,19.06-.01,23.07-.01,46.14,0,69.21,0,13.35,7.49,20.87,20.79,20.88,22.62.01,45.23,0,67.84,0,6.9,0,6.73.07,9.3,6.56,12.13,30.62,34.8,47.31,67.57,50.19,9.01.79,17.91-.72,26.53-3.5,3.65-1.18,5.56-4.12,5.36-7.65-.2-3.5-2.65-6.26-6.18-7.05-2.08-.46-3.95.38-5.84.91-41.54,11.41-81.2-22.56-76.11-65.22,5.01-41.98,51.11-66.03,88.4-46.11,24.67,13.17,36.95,41.17,30.05,68.48-1.56,6.21.19,10.02,5.16,11.21,4.54,1.09,7.77-1.46,9.34-7.23,2.89-10.62,3.19-21.3,1.45-32.17Zm-138.87-26.02c-8.55,11.09-11.44,24.93-11.08,39.09.07,2.65-.67,3.26-3.26,3.25-23.35-.11-46.7-.06-70.04-.07-4.52-.01-5.25-.71-5.26-5.16-.02-22.93-.02-45.86,0-68.78.01-4.51.89-5.34,5.57-5.35,14.36-.01,28.72,0,43.08,0s28.71-.01,43.07,0c5.25,0,5.71.49,5.73,5.79,0,.62-.04,1.25.01,1.87.86,10.7-.69,20.12-7.82,29.36Z"/>
      <path class="cls-1" d="m356.86,275.42c-4.89-19.33-24.57-29.15-43.43-21.54-20.85,8.41-41.65,16.96-62.47,25.45-1.37.17-1.17-.84-1.24-1.65-.13-1.54.28-3.12-.27-4.64-1.73-14.96-14.59-25.71-31.18-25.79-21.87-.1-43.73-.02-65.6-.02-14.31,0-26.52,4.88-36.43,15.36-5.14,5.44-10.66,10.54-15.76,16.01-3.33,3.58-7.29,5.01-12,5-12.62-.03-25.24-.07-37.86-.02-2.65.01-5.17-.37-7.71-1.1-10.64-3.02-21.3-5.95-31.95-8.92-2.34-.66-4.66-.93-6.9.29-2.78,1.53-4.2,3.99-3.99,7.07.27,3.78,2.6,6.07,6.2,7.08,9.46,2.63,18.9,5.32,28.39,7.82,2.38.63,3.38,1.44,3.36,4.19-.15,21.69-.12,43.39-.03,65.09.01,2.36-.48,3.16-3.02,3.11-8.74-.17-17.49-.08-26.24-.06-5.25.01-8.81,3.13-8.73,7.59.08,4.35,3.54,7.36,8.58,7.37,14.62.01,29.24,0,43.86,0,11.24,0,22.49.03,33.73-.01,5.13-.02,7.9-2.64,8.15-7.67.11-2.12.24-4.27-.01-6.36-.37-3.13.79-3.9,3.88-3.89,29.12.12,58.23-.04,87.34.11,17.08.09,33.41-3.09,49.09-9.79,9.59-4.1,19.24-8.07,28.85-12.14,25.15-10.64,50.36-21.16,75.44-32,14.22-6.15,21.62-21.44,17.95-35.94Zm-280.45,92.79c-6.85-.17-13.71-.15-20.57-.02-2.17.05-2.98-.33-2.96-2.78.11-21.41.09-42.81.01-64.22,0-2.09.54-2.73,2.67-2.69,6.98.13,13.97.18,20.95-.02,2.51-.07,2.77.89,2.75,2.99-.09,10.71-.04,21.41-.04,32.11s-.07,21.16.06,31.74c.02,2.29-.52,2.95-2.87,2.89Zm255.69-70.34c-14.36,6.21-28.8,12.27-43.23,18.34-21.87,9.19-43.71,18.48-65.68,27.46-11.17,4.56-22.99,6.45-35.06,6.52-14.36.08-28.73.02-43.09.02-15.74,0-31.48-.07-47.22.07-2.78.03-3.55-.61-3.52-3.46.15-15.09.11-30.17.02-45.26-.01-2.35.46-3.44,3.09-3.95,4.99-.97,9.19-3.69,12.77-7.32,5.78-5.86,11.63-11.66,17.36-17.58,6.59-6.8,14.49-10.25,24.03-10.21,22.61.08,45.22-.01,67.83.04,9.01.02,15.3,6.26,15.21,14.85-.09,8.37-6.48,14.46-15.24,14.47-17.12.02-34.23-.04-51.35.03-6.37.02-10.22,5.62-7.57,10.86,1.66,3.27,4.54,4.25,8.09,4.23,14.62-.07,29.23-.02,43.85-.03,3.49-.01,6.99-.1,10.49-.13,3.32-.02,6.47-.96,9.32-2.44,18.65-9.73,38.62-16.35,57.92-24.55,9.95-4.23,19.95-8.33,30.02-12.23,9.43-3.64,19.23,1.35,21.87,10.82,2.21,7.88-1.76,15.92-9.91,19.45Z"/>
      <path class="cls-1" d="m234.49,177.1c1.38-.1,3.18,1.02,5.04,2.06,3.54,1.98,7.33,2.4,11.2,1.25,3.38-1,5.06-3.54,5.34-6.91.27-3.33-2-4.85-4.74-5.87-4.66-1.73-9.28-3.52-13.65-5.95-6.47-3.59-10.08-8.98-9.87-16.34.22-7.59,3.6-13.68,10.53-17.28,1.8-.94,2.45-1.91,2.57-3.91.28-4.59,3.15-7.33,7.26-7.41,4.04-.08,7.3,2.67,7.71,7.06.19,2.09.86,2.98,2.79,3.62,2.36.78,4.52,2.1,6.32,3.88,2.89,2.87,3.18,7.08.73,10.15-2.38,2.99-6.33,3.85-9.7,1.73-2.61-1.65-5.18-3-8.36-2.48-2.24.36-3.94,1.31-4.48,3.81-.57,2.6,1.01,3.66,2.91,4.5,3.41,1.51,6.81,3.04,10.29,4.35,8.24,3.1,13.82,8.52,14.65,17.56.92,10.06-3.48,17.63-12.23,22.5-2.02,1.12-2.79,2.1-2.87,4.39-.16,4.48-3.61,7.72-7.62,7.68-3.93-.04-7.01-2.94-7.38-7.42-.16-1.96-.78-2.66-2.69-3.12-3.4-.82-6.57-2.41-9.27-4.66-2.5-2.09-3.49-4.79-2.37-8.02,1.15-3.33,3.53-5,7.9-5.16Z"/>
      <path class="cls-1" d="m245.22,50.3c3.5,0,6.99-.09,10.49.02,4.69.16,7.8,3.05,7.97,7.2.18,4.46-2.65,7.81-7.52,7.98-7.48.27-14.98.26-22.46-.01-4.62-.17-7.61-3.6-7.53-7.7.09-4.19,3.44-7.33,8.2-7.47,3.62-.11,7.24-.02,10.86-.02Z"/>
      <path class="cls-1" d="m219.87,38.78c-2.79-.39-5.24-1.37-6.63-4.12-1.34-2.66-1.57-5.57.43-7.71,5.72-6.09,11.59-12.04,17.71-17.73,2.89-2.68,7.07-1.99,9.78.83,2.6,2.7,3.22,6.74.64,9.5-5.69,6.11-11.73,11.9-17.71,17.73-1.07,1.04-2.68,1.26-4.23,1.49Z"/>
      <path class="cls-1" d="m297.58,215.81c-4.2-.06-7.64-3.6-7.47-7.69.16-3.98,3.58-7.36,7.48-7.4,4.04-.05,7.68,3.55,7.66,7.59-.02,4.15-3.51,7.57-7.67,7.5Z"/>
      <path class="cls-1" d="m250.96,279.33c-1.15,1-1.45.3-1.47-.78-.04-1.84-.03-3.67-.04-5.51,1.7,1.81-.35,4.51,1.51,6.28Z"/>
    </g>
  </g>
</svg>