<?xml version="1.0" encoding="UTF-8"?>
<svg id="Layer_2" data-name="Layer 2" xmlns="http://www.w3.org/2000/svg" viewBox="0 0 263.53 239.78">
  <defs>
    <style>
      .cls-1 {
        fill: #f5f4ed;
        stroke-width: 0px;
      }
    </style>
  </defs>
  <g id="Layer_1-2" data-name="Layer 1">
    <g>
      <path class="cls-1" d="m.01,12.25C.17,7.37,2.33,3.7,6.55,1.47c4.23-2.24,8.42-1.9,12.32.88,1.32.94,2.45,2.17,3.59,3.35,35.53,36.52,71.08,73.03,106.53,109.63,2.13,2.19,3.14,2.43,5.4.09,35.7-36.89,71.53-73.64,107.28-110.49,3.94-4.06,8.28-6.08,13.76-4.08,7.99,2.91,10.62,12.71,5.27,19.46-.86,1.09-1.87,2.06-2.84,3.05-38.52,39.61-77.04,79.22-115.56,118.83-7.63,7.84-13.5,7.85-21.07.07C82.45,102.37,43.67,62.48,4.86,22.62,2.03,19.71-.2,16.63.01,12.25Z"/>
      <path class="cls-1" d="m12.15,95.9c3.92-.11,6.8,1.86,9.44,4.51,15.93,15.98,31.9,31.92,47.86,47.87,19.92,19.92,39.88,39.81,59.71,59.82,2.05,2.07,3.07,2.08,5.13,0,35.72-35.86,71.53-71.63,107.3-107.44,2.72-2.73,5.62-4.83,9.71-4.79,4.97.04,8.62,2.26,10.83,6.61,2.3,4.52,1.71,8.92-1.35,12.93-.83,1.08-1.86,2.01-2.83,2.98-38.61,38.61-77.21,77.23-115.82,115.83-7.4,7.4-13.4,7.39-20.8-.01C82.54,195.43,43.76,156.64,4.95,117.87,2.13,115.05-.05,112.09.01,107.84c.1-6.76,5.32-11.98,12.14-11.94Z"/>
    </g>
  </g>
</svg>